# xmcd CD database file
#
# Track frame offsets:
#	150
#	18227
#	44035
#	63480
#	76275
#	96362
#	119337
#	142960
#	159305
#	183770
#	210962
#
# Disc length: 3048 seconds
#
# Revision: 0
# Processed by: cddbd v1.5.1PL0 Copyright (c) Steve Scherf et al.
# Submitted via: CDex 1.51
#
DISCID=8a0be60b
DTITLE=Jimmy Johnson - Heap See
DYEAR=1978
DGENRE=Blues
TTITLE0=Chicken Heads
TTITLE1=Cold Cold Feeling
TTITLE2=Heap See
TTITLE3=I've The Sane Old Blues
TTITLE4=Little By Little
TTITLE5=When My First Wife Quit Me
TTITLE6=You Don't Know What Love Is
TTITLE7=Happy Home
TTITLE8=Tobacco Road
TTITLE9=Missing Link
TTITLE10=I Don't Want No Woman
EXTD=YEAR: 1978
EXTT0=
EXTT1=
EXTT2=
EXTT3=
EXTT4=
EXTT5=
EXTT6=
EXTT7=
EXTT8=
EXTT9=
EXTT10=
PLAYORDER=
